<svg xmlns="http://www.w3.org/2000/svg" viewBox="0 0 365.76 77.55">
  <defs>
    <style>
      .cls-1 {
        fill: #f72147;
      }
    </style>
  </defs>
  <g id="Layer_2" data-name="Layer 2">
    <g id="Layer_1-2" data-name="Layer 1">
      <g id="Artwork_6" data-name="Artwork 6">
        <g>
          <path class="cls-1" d="M45.9,41.81C42.34,46.37,37.62,50,31.06,50,20.76,50,13,41.79,13,30.61s7.8-19.43,18.1-19.43c6.53,0,11.68,3.79,15,8l8.6-7.27C50.26,5.55,43,0,31.06,0,13.75,0,0,12.42,0,30.61S13.75,61.23,31.06,61.23c11.92,0,19.13-5.63,23.58-12Z"/>
          <polygon class="cls-1" points="64.52 77.55 71.71 60.78 54.32 17.3 66.39 17.3 77.57 47.11 88.75 17.3 100.9 17.3 76.53 77.55 64.52 77.55"/>
          <path class="cls-1" d="M125.12,51.2c6.57,0,10.92-5,10.92-12.43s-4.35-12.51-10.92-12.51c-3.63,0-9.67,2.64-9.67,10.8v1.18C115.45,49.22,121.49,51.2,125.12,51.2ZM104.18,1h11.27V21.51c4.14-4.21,8.17-5.27,13.22-5.27,10.92,0,19,8.52,19,22.53,0,14.29-8.16,22.45-19,22.45-4.7,0-9.5-1.18-13.22-5v4H104.18Z"/>
          <path class="cls-1" d="M163.28,34.7c.53-4.27,3.55-9.5,10.56-9.5,7.45,0,10.29,5.41,10.56,9.5Zm32,5.14c0-14-8.69-23.61-21.47-23.61-13,0-22.18,10-22.18,22.45,0,13.76,9.85,22.55,22.89,22.55,6.65,0,14.06-1.6,19.29-9.3l-8-5.11c-3.33,4.23-6.56,5.44-10.05,5.44-7.27,0-11.62-4.52-12.33-9.94h31.85Z"/>
          <path class="cls-1" d="M201.7,17.3H213V22c3-3.81,8.34-5.66,13.66-5.66v11c-6.41-.9-13.66,2.3-13.66,9.36V60.16H201.7Z"/>
          <path class="cls-1" d="M258,11.8H244.73V28.13H258c5.06,0,8.88-3.2,8.88-8.17S263,11.8,258,11.8ZM254,39h-9.23V60.16h-12.6V1h27.69c12.33,0,19.87,8.08,19.87,19.08,0,10.47-6.56,16.06-12.95,17.57l13.31,22.54H265.58Z"/>
          <path class="cls-1" d="M332.93,46.67a24.5,24.5,0,0,0,14.82,5.86c4.88,0,7.18-1.69,7.18-4.35,0-3-3.72-4.08-8.6-5.06-7.37-1.42-16.86-3.19-16.86-13.4,0-7.18,6.3-13.48,17.57-13.48a27.39,27.39,0,0,1,17.3,5.85l-4.52,7.72c-2.58-2.75-7.46-5-12.69-5-4.09,0-6.75,1.51-6.75,4,0,2.66,3.37,3.63,8.17,4.61,7.36,1.42,17.21,3.37,17.21,14,0,7.81-6.65,13.75-18.55,13.75-7.45,0-14.64-2.48-19.16-6.65Z"/>
          <path class="cls-1" d="M293.2,34.7c.53-4.27,3.55-9.5,10.56-9.5,7.45,0,10.29,5.41,10.56,9.5Zm32,5.14c0-14-8.69-23.61-21.47-23.61-13,0-22.18,10-22.18,22.45,0,13.76,9.85,22.55,22.89,22.55,6.65,0,14.06-1.59,19.29-9.3l-8-5.11c-3.33,4.23-6.56,5.44-10.05,5.44-7.27,0-11.62-4.52-12.33-9.94h31.85Z"/>
        </g>
      </g>
    </g>
  </g>
</svg>
